# xmcd CD database file
#
# Track frame offsets:
#	150
#	15505
#	31732
#	48050
#	64847
#	81612
#	98535
#	113382
#	128125
#	141442
#	156640
#
# Disc length: 2310 seconds
#
# Revision: 2
# Processed by: cddbd v1.5.2PL0 Copyright (c) Steve Scherf et al.
# Submitted via: CDex 1.51
#
DISCID=8809040b
DTITLE=BlackHawk - BlackHawk
DYEAR=1994
DGENRE=Country
TTITLE0=Goodbye Says It All
TTITLE1=Everyonce And A While
TTITLE2=I Sure Can Smell The Rain
TTITLE3=Down In Flames
TTITLE4=That's Just About Right
TTITLE5=I'm Not Strong Enough To Say No
TTITLE6=Like There Ain't No Yesterday
TTITLE7=Almost A Memory now
TTITLE8=Big Guitar
TTITLE9=King Of The World
TTITLE10=Hole In My Heart
EXTD=YEAR: 1994
EXTT0=
EXTT1=
EXTT2=
EXTT3=
EXTT4=
EXTT5=
EXTT6=
EXTT7=
EXTT8=
EXTT9=
EXTT10=
PLAYORDER=
